<svg width="21" height="21" viewBox="0 0 21 21" fill="none" xmlns="http://www.w3.org/2000/svg">
<path d="M11.751 8.63379C11.2772 8.63379 10.9102 9.00088 10.9102 9.4541C10.9102 9.90732 11.2772 10.2744 11.751 10.2744C12.1837 10.2744 12.5508 9.90732 12.5508 9.4541C12.5508 9.00088 12.1837 8.63379 11.751 8.63379ZM6.00879 8.63379C5.53506 8.63379 5.16797 9.00088 5.16797 9.4541C5.16797 9.90732 5.53506 10.2744 6.00879 10.2744C6.4415 10.2744 6.80859 9.90732 6.80859 9.4541C6.80859 9.00088 6.4415 8.63379 6.00879 8.63379Z" fill="white"/>
<path d="M18.3342 7.07514C17.3478 5.72162 15.9696 4.81723 14.4582 4.40912V4.41117C14.1075 4.02152 13.7117 3.66264 13.2688 3.34271C9.91164 0.902285 5.19895 1.64672 2.74826 5.00385C0.773359 7.73139 0.857441 11.4002 2.87131 14.0068L2.88771 16.7261C2.88771 16.7917 2.89797 16.8574 2.91848 16.9189C3.02717 17.2655 3.39631 17.4562 3.74084 17.3475L6.33713 16.5292C7.02414 16.7733 7.73371 16.9127 8.43918 16.9517L8.42893 16.9599C10.2562 18.2909 12.6515 18.6908 14.8479 17.9648L17.4544 18.8138C17.52 18.8343 17.5877 18.8466 17.6574 18.8466C18.0204 18.8466 18.3137 18.5534 18.3137 18.1904V15.4423C20.1204 12.9896 20.1676 9.59965 18.3342 7.07514ZM6.62424 15.0732L6.37814 14.9706L4.34787 15.6064L4.32736 13.4736L4.1633 13.289C2.42834 11.1726 2.3135 8.12309 3.93771 5.88568C5.91467 3.17455 9.70451 2.57572 12.4074 4.53217C15.1186 6.50297 15.7195 10.2867 13.761 12.9814C12.1183 15.2352 9.17746 16.0678 6.62424 15.0732ZM16.9807 14.7246L16.8166 14.9296L16.8371 17.0624L14.8274 16.3857L14.5813 16.4882C13.4328 16.9148 12.2085 16.9496 11.0744 16.6318L11.0703 16.6297C12.5859 16.1642 13.9599 15.2208 14.9504 13.8632C16.5172 11.7037 16.7715 8.99057 15.861 6.67728L15.8733 6.68549C16.3449 7.02387 16.7777 7.44633 17.1447 7.95697C18.6336 9.99955 18.5495 12.7804 16.9807 14.7246Z" fill="white"/>
<path d="M8.87988 8.63379C8.40615 8.63379 8.03906 9.00088 8.03906 9.4541C8.03906 9.90732 8.40615 10.2744 8.87988 10.2744C9.3126 10.2744 9.67969 9.90732 9.67969 9.4541C9.67969 9.00088 9.3126 8.63379 8.87988 8.63379Z" fill="white"/>
</svg>
