<svg width="21" height="21" viewBox="0 0 21 21" fill="none" xmlns="http://www.w3.org/2000/svg">
<path d="M20.9369 19.4905L14.1198 12.6734C15.1777 11.3058 15.7499 9.63371 15.7499 7.87497C15.7499 5.76972 14.9283 3.79573 13.4426 2.30736C11.9568 0.818996 9.97758 0 7.87497 0C5.77235 0 3.79311 0.821621 2.30736 2.30736C0.818996 3.79311 0 5.76972 0 7.87497C0 9.97758 0.821621 11.9568 2.30736 13.4426C3.79311 14.9309 5.76972 15.7499 7.87497 15.7499C9.63371 15.7499 11.3032 15.1777 12.6708 14.1224L19.4879 20.9369C19.5079 20.9569 19.5316 20.9728 19.5578 20.9836C19.5839 20.9944 19.6119 21 19.6402 21C19.6684 21 19.6964 20.9944 19.7226 20.9836C19.7487 20.9728 19.7724 20.9569 19.7924 20.9369L20.9369 19.795C20.9569 19.775 20.9728 19.7513 20.9836 19.7252C20.9944 19.6991 21 19.6711 21 19.6428C21 19.6145 20.9944 19.5865 20.9836 19.5604C20.9728 19.5343 20.9569 19.5105 20.9369 19.4905ZM12.0329 12.0329C10.92 13.1433 9.44471 13.7549 7.87497 13.7549C6.30522 13.7549 4.82998 13.1433 3.71698 12.0329C2.60661 10.92 1.99499 9.44471 1.99499 7.87497C1.99499 6.30522 2.60661 4.82735 3.71698 3.71698C4.82998 2.60661 6.30522 1.99499 7.87497 1.99499C9.44471 1.99499 10.9226 2.60399 12.0329 3.71698C13.1433 4.82998 13.7549 6.30522 13.7549 7.87497C13.7549 9.44471 13.1433 10.9226 12.0329 12.0329Z" fill="#C6C6C6"/>
</svg>
