<svg width="14" height="14" viewBox="0 0 14 14" fill="none" xmlns="http://www.w3.org/2000/svg">
<path d="M13.4167 2.52H11.0833V1.12C11.0833 0.50225 10.5602 0 9.91667 0H4.08333C3.43984 0 2.91667 0.50225 2.91667 1.12V2.52H0.583333C0.260677 2.52 0 2.77025 0 3.08V3.64C0 3.717 0.065625 3.78 0.145833 3.78H1.24687L1.69714 12.9325C1.7263 13.5293 2.24036 14 2.86198 14H11.138C11.7615 14 12.2737 13.531 12.3029 12.9325L12.7531 3.78H13.8542C13.9344 3.78 14 3.717 14 3.64V3.08C14 2.77025 13.7393 2.52 13.4167 2.52ZM9.77083 2.52H4.22917V1.26H9.77083V2.52Z" fill="white"/>
</svg>
