<svg width="20" height="18" viewBox="0 0 20 18" fill="none" xmlns="http://www.w3.org/2000/svg">
<path d="M9.97313 1.558C8.88353 0.556104 7.45733 4.65535e-05 5.97713 0C5.19366 0.000815702 4.4181 0.15656 3.69506 0.458268C2.97203 0.759977 2.31579 1.20169 1.76413 1.758C-0.588875 4.121 -0.587875 7.817 1.76613 10.17L9.09813 17.502C9.26813 17.801 9.59613 17.994 9.97313 17.994C10.1279 17.9925 10.2802 17.9547 10.4178 17.8837C10.5553 17.8126 10.6743 17.7103 10.7651 17.585L18.1801 10.17C20.5341 7.816 20.5341 4.121 18.1781 1.754C17.6267 1.19872 16.971 0.757897 16.2487 0.456883C15.5264 0.15587 14.7517 0.000599606 13.9691 0C12.489 0.000241959 11.0628 0.556273 9.97313 1.558ZM16.7641 3.168C18.3271 4.739 18.3281 7.193 16.7661 8.756L9.97313 15.549L3.18012 8.756C1.61812 7.193 1.61913 4.739 3.17813 3.172C3.93813 2.416 4.93213 2 5.97713 2C7.02213 2 8.01213 2.416 8.76613 3.17L9.26613 3.67C9.35891 3.76295 9.46912 3.83668 9.59043 3.88699C9.71175 3.9373 9.84179 3.9632 9.97313 3.9632C10.1045 3.9632 10.2345 3.9373 10.3558 3.88699C10.4771 3.83668 10.5873 3.76295 10.6801 3.67L11.1801 3.17C12.6921 1.661 15.2541 1.665 16.7641 3.168Z" fill="white"/>
</svg>
